<?xml version="1.0" encoding="UTF-8"?>
<!DOCTYPE svg PUBLIC "-//W3C//DTD SVG 1.1//EN" "http://www.w3.org/Graphics/SVG/1.1/DTD/svg11.dtd">
<!-- Creator: CorelDRAW 2020 (64 Bit) -->
<svg xmlns="http://www.w3.org/2000/svg" xml:space="preserve" width="1798px" height="565px" version="1.1" style="shape-rendering:geometricPrecision; text-rendering:geometricPrecision; image-rendering:optimizeQuality; fill-rule:evenodd; clip-rule:evenodd"
viewBox="0 0 1713.39 538.59"
 xmlns:xlink="http://www.w3.org/1999/xlink"
 xmlns:xodm="http://www.corel.com/coreldraw/odm/2003">
 <defs>
  <style type="text/css">
   <![CDATA[
    .fil0 {fill:#C44900}
    .fil1 {fill:#EADDC7;fill-rule:nonzero}
   ]]>
  </style>
 </defs>
 <g id="Camada_x0020_1">
  <metadata id="CorelCorpID_0Corel-Layer"/>
  <path class="fil0" d="M827.2 8.94c40.11,0 73.45,27.36 75.75,63.56 10.1,-4.8 21.69,-7.54 33.44,-7.54 2.49,0 4.98,0.05 7.62,0.1 21.16,0 40.85,7.92 55.36,21.12 11.96,-13.04 30.27,-21.06 51.43,-21.06 2.36,0 4.98,0 7.75,0 21.17,0 41.25,8.02 57.23,21.22 10.91,-13.2 28.43,-21.12 49.6,-21.12 2.35,0 4.84,0 7.33,0 21.17,0 42.89,8.03 60.16,21.06 9.62,-13.03 26.31,-21.06 46.79,-21.06 2.49,0 4.98,0 7.61,0 20.47,0 41.68,7.54 59.85,19.88 7.75,-12.28 22.52,-19.71 42.3,-19.71 15.78,0 31.55,0 47.33,0 11.62,0 24.48,4.79 35.18,12.33 8.07,-7.81 20.44,-12.33 36.35,-12.33 2.49,0 4.98,0 7.61,0 40.75,0.16 93.08,29.78 116.54,68.45 12.17,20.09 24.72,40.72 37.64,61.99 4.28,7.06 5.28,13.58 5.42,19.28 6.92,5.98 14.07,12.82 18.54,20.2 1.89,3.07 3.78,6.2 5.64,9.27 18.97,31.29 17.51,59.73 0.26,74.86 0,0 0,0 0,0 -24.48,22.35 -49.13,45.62 -74.1,69.59 -0.31,16.75 -6.02,31.02 -16.47,40.77 -33.93,30.75 -69.17,63.01 -105.88,96.78 -0.87,0.81 -1.77,1.51 -2.66,2.27 -1.1,0.7 -2,1.4 -2.93,2.04 -1.12,0.65 -2.06,1.29 -3.02,1.83 -1.16,0.54 -2.12,1.13 -3.12,1.62 -1.19,0.48 -2.38,0.91 -3.41,1.35 -1.22,0.37 -2.44,0.8 -3.7,1.13 -1.25,0.27 -2.5,0.59 -3.56,0.91 -1.29,0.27 -2.57,0.49 -3.89,0.65 -1.5,0.16 -2.85,0.21 -4.22,0.21 -1.56,0 -2.93,0 -4.31,0 -16.25,0 -32.51,0 -47.98,0 -0.78,0 -1.57,0 -2.35,0 -0.78,0 -1.57,0 -2.15,0 -0.81,-0.05 -1.43,-0.1 -2.06,-0.27 -0.84,-0.16 -1.67,-0.32 -2.31,-0.48 -0.83,-0.16 -1.47,-0.32 -2.14,-0.59 -0.85,-0.22 -1.71,-0.43 -2.38,-0.7 -0.85,-0.22 -1.54,-0.54 -2.23,-0.86 -0.88,-0.33 -1.57,-0.65 -2.25,-0.97 -0.69,-0.33 -1.37,-0.65 -2.09,-1.03 -0.68,-0.32 -1.39,-0.7 -2.1,-1.13 -0.71,-0.38 -1.42,-0.81 -2.15,-1.24 -0.73,-0.48 -1.47,-0.97 -2.2,-1.45 -0.73,-0.49 -1.46,-0.97 -2.2,-1.46 -0.73,-0.43 -1.48,-1.02 -2.04,-1.56 -0.73,-0.48 -1.49,-1.02 -2.05,-1.61 -0.75,-0.54 -1.31,-1.08 -1.89,-1.73 -0.76,-0.59 -1.34,-1.18 -1.92,-1.83 -0.77,-0.64 -1.36,-1.29 -1.55,-1.94 -0.97,-0.64 -1.55,-1.24 -2.15,-1.99 -0.58,-0.59 -1.19,-1.35 -1.79,-2.05 -0.58,-0.64 -1.18,-1.34 -1.78,-2.04 -0.6,-0.7 -1.19,-1.4 -1.62,-2.21 -0.59,-0.7 -1.18,-1.35 -1.61,-2.16 -0.61,-0.75 -1.04,-1.5 -1.46,-2.31 -0.59,-0.7 -1.02,-1.46 -1.51,-2.48 -0.42,-0.75 -0.84,-1.51 -1.29,-2.37 -0.42,-0.81 -0.84,-1.56 -1.29,-2.42 -0.42,-0.76 -0.86,-1.62 -1.31,-2.48 -0.42,-0.75 -0.67,-1.62 -0.92,-2.48 -0.45,-0.81 -0.89,-1.67 -1.14,-2.53 -0.45,-0.86 -0.7,-1.72 -0.95,-2.53 -0.25,-0.86 -0.49,-1.67 -0.76,-2.59 -5.23,-17.55 -10.4,-34.95 -15.43,-51.86 -7.69,0 -15.33,0.21 -23.58,0.21 -0.37,0 -0.74,0 -1.1,0 -0.37,0 -0.73,0 -0.94,-0.05 -0.36,0 -0.73,0 -0.93,-0.11 -0.37,0 -0.74,0 -1.12,-0.05 -0.37,0 -0.76,-0.06 -0.96,-0.16 -0.37,0 -0.75,-0.06 -0.96,-0.11 -0.38,-0.06 -0.77,-0.16 -1.15,-0.22 -0.39,-0.05 -0.78,-0.16 -0.98,-0.21 -0.38,-0.06 -0.77,-0.16 -0.99,-0.27 -0.39,-0.11 -0.77,-0.16 -0.99,-0.27 -0.39,-0.11 -0.78,-0.16 -1,-0.32 -0.38,-0.06 -0.79,-0.22 -1.01,-0.33 -0.39,-0.1 -0.79,-0.21 -1.01,-0.37 -0.39,-0.06 -0.79,-0.22 -1.01,-0.33 -0.41,-0.16 -0.63,-0.32 -0.85,-0.43 -0.4,-0.16 -0.81,-0.27 -1.03,-0.43 -0.33,0.16 -0.65,0.27 -0.98,0.43 -0.33,0.11 -0.66,0.27 -0.8,0.43 -0.33,0.11 -0.66,0.27 -0.99,0.38 -0.33,0.16 -0.65,0.32 -0.82,0.38 -0.33,0.16 -0.67,0.21 -1.02,0.27 -0.33,0.16 -0.66,0.32 -1,0.37 -0.35,0.06 -0.7,0.11 -1.05,0.22 -0.33,0.11 -0.67,0.21 -1.02,0.27 -0.35,0.05 -0.7,0.16 -0.86,0.21 -0.35,0.06 -0.7,0.16 -1.04,0.22 -0.35,0.05 -0.7,0.11 -1.07,0.11 -0.34,0.1 -0.69,0.16 -1.06,0.16 -0.35,0.05 -0.71,0.05 -1.08,0.05 -0.35,0.11 -0.71,0.11 -1.08,0.11 -0.35,0.05 -0.72,0.05 -1.08,0.05 -0.37,0 -0.74,0 -1.1,0 -1.84,0 -3.49,0 -5.14,0 -0.55,0 -1.1,0 -1.65,0 -0.73,0 -1.28,0 -1.85,-0.05 -0.55,0 -1.11,-0.11 -1.5,-0.16 -0.57,-0.06 -1.13,-0.11 -1.7,-0.22 -0.57,-0.05 -1.14,-0.11 -1.7,-0.21 -0.57,-0.06 -1.14,-0.11 -1.72,-0.27 -0.57,-0.06 -1.16,-0.22 -1.74,-0.38 -0.57,-0.05 -1.15,-0.16 -1.74,-0.32 -0.76,-0.16 -1.53,-0.27 -2.12,-0.43 -0.58,-0.16 -1.16,-0.27 -1.58,-0.49 -0.59,-0.16 -1.17,-0.27 -1.77,-0.48 -0.58,-0.16 -1.18,-0.38 -1.6,-0.6 -0.58,-0.1 -1.18,-0.32 -1.6,-0.53 -0.6,-0.22 -1.2,-0.44 -1.63,-0.7 -0.6,-0.22 -1.2,-0.44 -1.64,-0.7 -0.59,-0.22 -1.19,-0.44 -1.63,-0.7 -0.59,-0.22 -1.21,-0.54 -1.64,-0.81 -0.62,-0.27 -1.05,-0.54 -1.48,-0.86 -0.62,-0.27 -1.23,-0.54 -1.66,-0.81 -0.61,-0.32 -1.04,-0.59 -1.49,-0.92 -0.62,-0.32 -1.23,-0.59 -1.67,-0.91 -0.62,-0.33 -1.06,-0.65 -1.51,-1.03 -0.61,-0.27 -1.06,-0.59 -1.5,-0.97 -0.63,-0.37 -1.08,-0.7 -1.52,-1.07 -0.45,-0.33 -0.89,-0.7 -1.35,-1.08 -0.62,-0.38 -1.07,-0.7 -1.52,-1.13 -0.63,-0.33 -1.07,-0.65 -1.53,-1.08 -0.44,-0.32 -0.89,-0.75 -1.35,-1.18 -0.46,-0.38 -0.91,-0.81 -1.37,-1.24 -0.44,-0.33 -0.9,-0.76 -1.35,-1.13 -0.46,-0.43 -0.91,-0.86 -1.38,-1.3 -0.46,-0.43 -0.91,-0.86 -1.38,-1.34 -0.43,0.48 -0.7,0.91 -0.97,1.34 -0.43,0.44 -0.7,0.87 -0.97,1.3 -0.45,0.37 -0.9,0.8 -1.17,1.24 -0.45,0.37 -0.72,0.8 -1,1.23 -0.45,0.38 -0.9,0.81 -1.19,1.13 -0.45,0.44 -0.92,0.76 -1.2,1.14 -0.46,0.37 -0.93,0.75 -1.21,1.07 -0.46,0.43 -0.93,0.76 -1.21,1.13 -0.47,0.33 -0.94,0.7 -1.23,1.03 -0.46,0.37 -0.93,0.7 -1.23,1.02 -0.47,0.32 -0.94,0.7 -1.25,0.97 -0.47,0.38 -0.95,0.65 -1.44,0.92 -0.47,0.37 -0.96,0.64 -1.44,0.91 -0.49,0.27 -0.97,0.59 -1.28,0.86 -0.49,0.27 -0.97,0.54 -1.46,0.81 -0.49,0.32 -0.98,0.59 -1.48,0.81 -0.49,0.27 -0.99,0.48 -1.49,0.7 -0.49,0.27 -1,0.48 -1.5,0.7 -0.51,0.21 -1.01,0.43 -1.51,0.65 -0.69,0.21 -1.2,0.43 -1.7,0.64 -0.51,0.22 -1.01,0.43 -1.53,0.54 -0.69,0.22 -1.21,0.38 -1.73,0.49 -0.51,0.21 -1.03,0.37 -1.55,0.48 -0.7,0.16 -1.22,0.32 -1.74,0.43 -0.71,0.16 -1.23,0.32 -1.76,0.38 -0.53,0.16 -1.06,0.21 -1.6,0.27 -0.7,0.16 -1.24,0.21 -1.77,0.27 -0.72,0.1 -1.26,0.16 -1.79,0.21 -0.72,0.11 -1.26,0.16 -1.79,0.22 -0.72,0.11 -1.26,0.16 -1.81,0.16 -0.72,0.05 -1.27,0.05 -1.82,0.05 -0.73,0 -1.47,0 -2.02,0 -2.56,0 -5.13,0 -7.7,0 -0.73,0 -1.46,0 -2.01,0 -0.74,0 -1.48,-0.05 -2.04,-0.1 -0.74,0 -1.48,-0.11 -2.23,-0.17 -0.75,-0.05 -1.49,-0.16 -2.05,-0.21 -0.75,-0.06 -1.5,-0.16 -2.07,-0.27 -0.75,-0.05 -1.51,-0.22 -2.08,-0.38 -0.76,-0.11 -1.52,-0.27 -2.09,-0.43 -0.76,-0.11 -1.51,-0.27 -2.09,-0.38 -0.76,-0.16 -1.52,-0.37 -2.11,-0.59 -0.76,-0.16 -1.34,-0.32 -1.93,-0.54 -0.77,-0.21 -1.54,-0.43 -2.12,-0.64 -0.77,-0.22 -1.35,-0.43 -1.95,-0.7 -0.77,-0.22 -1.36,-0.49 -1.96,-0.81 -0.77,-0.22 -1.54,-0.49 -2.14,-0.76 -0.78,-0.26 -1.37,-0.59 -1.97,-0.86 -0.78,-0.27 -1.37,-0.54 -1.98,-0.91 -0.59,-0.27 -1.19,-0.65 -1.8,-0.97 -0.77,-0.27 -1.38,-0.65 -1.98,-1.03 -0.79,-0.32 -1.39,-0.7 -2,-1.02 -0.6,-0.38 -1.17,-0.48 -1.78,-0.91 -0.61,-0.38 -1.22,-0.81 -1.83,-1.19 -0.6,-0.38 -1.22,-0.81 -1.83,-1.24 -0.61,-0.37 -1.22,-0.81 -1.83,-1.24 -0.61,-0.37 -1.22,-0.81 -1.82,-1.24 -0.61,-0.37 -1.22,-0.8 -1.86,-1.4 -0.62,-0.48 -1.24,-0.97 -1.67,-1.45 -0.62,-0.48 -1.24,-0.97 -1.67,-1.45 -0.62,-0.49 -1.23,-0.97 -1.67,-1.41 -0.61,-0.48 -1.23,-0.96 -1.66,-1.45 -0.62,-0.48 -1.24,-1.02 -1.68,-1.61 -0.62,-0.44 -1.23,-0.92 -1.67,-1.51 -0.62,-0.54 -1.07,-1.08 -1.51,-1.62 -0.46,0.54 -0.73,1.08 -1.01,1.62 -0.46,0.59 -0.93,1.07 -1.22,1.51 -0.46,0.59 -0.74,1.13 -1.03,1.61 -0.47,0.49 -0.94,0.97 -1.24,1.45 -0.47,0.44 -0.94,0.92 -1.22,1.51 -0.46,0.6 -0.93,1.08 -1.4,1.57 -0.48,0.48 -0.95,0.96 -1.26,1.34 -0.47,0.49 -0.96,0.92 -1.44,1.35 -0.49,0.37 -0.97,0.81 -1.46,1.18 -0.49,0.43 -0.98,0.87 -1.28,1.24 -0.67,0.43 -1.15,0.86 -1.65,1.24 -0.49,0.38 -0.97,0.81 -1.47,1.19 -0.49,0.43 -0.99,0.75 -1.49,1.13 -0.68,0.32 -1.17,0.7 -1.67,1.02 -0.5,0.38 -1,0.75 -1.51,1.02 -0.68,0.33 -1.18,0.7 -1.69,0.97 -0.69,0.38 -1.2,0.65 -1.71,0.92 -0.69,0.27 -1.2,0.59 -1.71,0.86 -0.7,0.27 -1.21,0.54 -1.73,0.75 -0.69,0.33 -1.39,0.6 -1.91,0.81 -0.7,0.27 -1.22,0.49 -1.74,0.7 -0.7,0.22 -1.41,0.43 -1.93,0.65 -0.71,0.21 -1.23,0.38 -1.76,0.54 -0.71,0.21 -1.41,0.43 -1.95,0.59 -0.71,0.11 -1.43,0.27 -1.96,0.38 -0.71,0.16 -1.43,0.32 -1.96,0.43 -0.72,0.16 -1.43,0.32 -1.98,0.37 -0.71,0.11 -1.44,0.22 -1.98,0.27 -0.72,0.06 -1.45,0.17 -1.99,0.22 -0.72,0.05 -1.45,0.16 -2,0.16 -0.73,0.05 -1.45,0.11 -2.18,0.11 -0.74,0 -1.47,0 -2.02,0 -2.57,0 -5.13,0 -7.7,0 -0.73,0 -1.47,0 -2.02,0 -0.73,0 -1.46,0 -2.02,-0.06 -0.74,-0.05 -1.48,-0.16 -2.04,-0.21 -0.74,-0.05 -1.48,-0.16 -2.04,-0.22 -0.74,-0.05 -1.48,-0.1 -2.04,-0.21 -0.74,-0.06 -1.48,-0.22 -2.05,-0.32 -0.74,-0.11 -1.3,-0.22 -1.86,-0.38 -0.75,-0.11 -1.5,-0.27 -2.07,-0.49 -0.74,-0.16 -1.3,-0.27 -1.87,-0.48 -0.75,-0.16 -1.31,-0.27 -1.88,-0.49 -0.75,-0.21 -1.5,-0.43 -2.07,-0.64 -0.75,-0.22 -1.32,-0.43 -1.89,-0.65 -0.75,-0.21 -1.32,-0.43 -1.89,-0.7 -0.75,-0.21 -1.32,-0.48 -1.9,-0.75 -0.74,-0.22 -1.32,-0.54 -1.89,-0.81 -0.57,-0.27 -1.14,-0.54 -1.72,-0.92 -0.76,-0.27 -1.33,-0.53 -1.91,-0.91 -0.57,-0.27 -1.14,-0.54 -1.71,-0.92 -0.76,-0.27 -1.33,-0.64 -1.91,-0.97 -0.57,-0.37 -1.15,-0.7 -1.72,-1.07 -0.58,-0.38 -1.15,-0.7 -1.73,-1.14 -0.57,-0.32 -1.15,-0.7 -1.73,-1.13 -0.57,-0.32 -1.15,-0.75 -1.54,-1.18 -0.58,-0.43 -1.16,-0.81 -1.73,-1.24 -0.58,-0.38 -1.16,-0.81 -1.55,-1.24 -0.57,-0.38 -1.15,-0.81 -1.72,-1.24 -0.58,-0.37 -1.16,-0.86 -1.55,-1.34 -0.58,-0.43 -1.16,-0.92 -1.55,-1.4 -0.57,-0.38 -1.15,-0.87 -1.55,-1.35 -0.57,-0.49 -0.97,-0.97 -1.36,-1.46 -0.58,-0.48 -1.15,-0.96 -1.55,-1.5 -0.58,-0.49 -0.97,-0.97 -1.37,-1.51 -0.5,0.54 -0.83,1.02 -1.16,1.51 -0.5,0.54 -0.83,1.02 -1.16,1.5 -0.51,0.49 -0.83,0.97 -1.16,1.46 -0.51,0.48 -1.02,0.97 -1.36,1.35 -0.51,0.48 -0.84,0.97 -1.17,1.4 -0.52,0.48 -1.03,0.86 -1.37,1.29 -0.51,0.48 -1.03,0.91 -1.36,1.29 -0.52,0.43 -1.04,0.86 -1.38,1.24 -0.52,0.43 -1.04,0.81 -1.37,1.24 -0.52,0.43 -1.05,0.75 -1.57,1.13 -0.52,0.43 -1.04,0.86 -1.38,1.18 -0.53,0.38 -1.05,0.7 -1.58,1.08 -0.52,0.32 -1.05,0.7 -1.39,1.02 -0.53,0.38 -1.06,0.76 -1.59,1.03 -0.52,0.32 -1.05,0.7 -1.58,0.97 -0.71,0.38 -1.24,0.64 -1.78,0.91 -0.53,0.27 -1.06,0.6 -1.59,0.87 -0.54,0.26 -1.07,0.53 -1.6,0.86 -0.72,0.27 -1.26,0.48 -1.79,0.7 -0.72,0.27 -1.26,0.54 -1.79,0.75 -0.54,0.22 -1.08,0.43 -1.62,0.65 -0.72,0.21 -1.26,0.43 -1.8,0.54 -0.72,0.21 -1.26,0.43 -1.8,0.59 -0.73,0.21 -1.27,0.32 -1.81,0.48 -0.73,0.22 -1.45,0.38 -2,0.49 -0.72,0.16 -1.27,0.27 -1.81,0.38 -0.73,0.1 -1.27,0.26 -1.82,0.32 -0.73,0.11 -1.46,0.16 -2.01,0.21 -0.73,0.11 -1.28,0.17 -1.82,0.22 -0.73,0.11 -1.46,0.16 -2.01,0.21 -0.73,0.06 -1.28,0.06 -1.83,0.06 -0.74,0 -1.47,0 -2.02,0 -4.4,0 -8.62,0 -12.83,0 -0.55,0 -1.1,0 -1.65,0 -0.37,0 -0.74,0 -0.92,-0.06 -0.55,0 -1.1,0 -1.65,-0.05 -0.55,0 -1.1,-0.05 -1.47,-0.16 -0.55,0 -1.1,-0.05 -1.66,-0.11 -0.55,-0.11 -1.1,-0.16 -1.47,-0.21 -0.55,-0.11 -1.1,-0.17 -1.47,-0.22 -0.55,-0.11 -1.1,-0.16 -1.65,-0.27 -0.55,-0.11 -1.1,-0.16 -1.47,-0.32 -0.55,-0.06 -1.1,-0.22 -1.47,-0.32 -0.55,-0.11 -1.11,-0.22 -1.47,-0.38 -0.55,-0.11 -1.11,-0.27 -1.47,-0.43 -0.55,-0.11 -1.11,-0.27 -1.47,-0.43 -0.56,-0.11 -1.11,-0.27 -1.47,-0.49 -0.55,-0.11 -1.1,-0.27 -1.47,-0.48 -0.55,-0.11 -1.1,-0.27 -1.47,-0.49 -0.55,-0.16 -0.92,-0.38 -1.29,-0.59 -0.55,-0.16 -1.1,-0.38 -1.46,-0.59 -0.55,-0.22 -1.1,-0.43 -1.47,-0.65 -0.55,-0.21 -0.91,-0.43 -1.28,-0.65 -0.55,-0.21 -1.1,-0.43 -1.47,-0.7 -0.54,-0.21 -0.91,-0.43 -1.28,-0.7 -0.54,-0.21 -0.91,-0.43 -1.27,-0.7 -0.55,-0.21 -0.92,-0.48 -1.28,-0.8 -0.55,-0.27 -1.1,-0.54 -1.46,-0.81 -0.55,-0.22 -0.91,-0.54 -1.28,-0.81 -0.54,-0.27 -0.91,-0.54 -1.27,-0.92 -0.36,-0.26 -0.73,-0.53 -0.91,-0.8 0,-0.33 0,-0.6 -0.91,-0.86 -0.54,-0.38 -0.9,-0.65 -1.27,-0.97 -0.54,-0.27 -0.9,-0.65 -1.26,-0.97 -0.37,-0.27 -0.73,-0.6 -1.09,-0.97 -0.55,0.64 -1.09,1.24 -1.46,1.94 -0.55,0.75 -1.09,1.4 -1.46,1.93 -0.55,0.38 -1.1,0.92 -1.65,1.51 -0.55,0.54 -1.1,1.13 -1.64,1.62 -0.56,0.48 -1.11,0.97 -1.66,1.45 -0.73,0.49 -1.28,1.03 -1.83,1.46 -0.74,0.37 -1.29,0.8 -1.84,1.24 -0.74,0.43 -1.47,0.86 -2.03,1.18 -0.73,0.38 -1.47,0.7 -2.02,1.08 -0.74,0.37 -1.47,0.64 -2.03,0.91 -0.73,0.27 -1.47,0.6 -2.02,0.81 -0.74,0.16 -1.48,0.38 -2.21,0.59 -0.74,0.22 -1.48,0.43 -2.21,0.6 -0.74,0.1 -1.47,0.27 -2.21,0.32 -0.73,0.11 -1.47,0.16 -2.2,0.21 -0.92,0.11 -1.65,0.11 -2.39,0.11 -10.63,0 -20.72,0 -30.8,0 -0.55,0 -0.92,0 -1.28,0 -0.55,0 -1.1,0 -1.47,-0.11 -0.55,0 -1.09,-0.05 -1.46,-0.1 -0.54,-0.11 -0.91,-0.16 -1.27,-0.22 -0.55,-0.11 -1.09,-0.16 -1.45,-0.27 -0.55,-0.11 -0.91,-0.16 -1.27,-0.32 -0.55,-0.05 -0.91,-0.22 -1.27,-0.32 -0.55,0 -1.09,-0.11 -1.45,-0.22 -0.54,-0.16 -0.9,-0.27 -1.26,-0.48 -0.54,-0.17 -0.9,-0.33 -1.25,-0.54 -0.54,-0.11 -0.9,-0.33 -1.25,-0.54 -0.36,-0.16 -0.72,-0.38 -1.07,-0.54 -0.54,-0.22 -0.89,-0.43 -1.24,-0.75 -0.54,-0.22 -0.89,-0.38 -1.24,-0.7 -0.36,-0.22 -0.71,-0.44 -1.06,-0.7 -0.35,-0.22 -0.7,-0.49 -1.05,-0.76 -0.38,0.27 -0.76,0.54 -1.14,0.76 -0.56,0.26 -0.94,0.48 -1.32,0.7 -0.38,0.32 -0.76,0.48 -1.14,0.7 -0.56,0.32 -0.94,0.53 -1.32,0.75 -0.38,0.16 -0.76,0.38 -1.13,0.54 -0.57,0.21 -0.94,0.43 -1.32,0.59 -0.56,0.16 -0.94,0.32 -1.31,0.49 -0.56,0.21 -0.94,0.32 -1.32,0.48 -0.56,0.11 -0.93,0.27 -1.31,0.43 -0.55,0.11 -1.11,0.27 -1.49,0.32 -0.55,0.17 -0.92,0.22 -1.3,0.33 -0.56,0.11 -0.93,0.16 -1.3,0.27 -0.55,0.05 -1.11,0.1 -1.48,0.21 -0.55,0.06 -0.93,0.11 -1.29,0.11 -0.56,0.11 -1.11,0.11 -1.48,0.11 -0.54,0 -1.1,0 -1.46,0 -10.27,0 -20.36,0 -30.99,0 -0.55,0 -1.1,0 -1.47,0 -0.55,0 -1.1,0 -1.46,-0.11 -0.55,0 -0.91,-0.05 -1.27,-0.11 -0.54,-0.11 -1.09,-0.16 -1.45,-0.21 -0.54,-0.06 -0.9,-0.16 -1.25,-0.27 -0.55,-0.11 -0.9,-0.16 -1.26,-0.33 -0.54,-0.05 -1.08,-0.21 -1.43,-0.32 -0.53,-0.16 -0.89,-0.27 -1.24,-0.43 -0.53,-0.16 -0.89,-0.27 -1.23,-0.48 -0.54,-0.17 -0.89,-0.27 -1.23,-0.49 -0.54,-0.16 -0.88,-0.38 -1.23,-0.59 -0.34,-0.22 -0.68,-0.43 -1.03,-0.65 -0.53,-0.21 -0.87,-0.43 -1.21,-0.59 -0.53,-0.22 -0.87,-0.43 -1.21,-0.75 -0.34,-0.22 -0.69,-0.38 -1.02,-0.7 -0.34,-0.27 -0.67,-0.54 -1.01,-0.81 -0.39,0.27 -0.79,0.54 -1.18,0.81 -0.58,0.32 -0.97,0.48 -1.36,0.7 -0.39,0.32 -0.78,0.53 -1.17,0.75 -0.57,0.16 -0.96,0.38 -1.35,0.59 -0.57,0.22 -0.96,0.43 -1.35,0.65 -0.57,0.21 -0.96,0.43 -1.34,0.59 -0.58,0.22 -0.96,0.32 -1.34,0.49 -0.57,0.21 -0.95,0.32 -1.34,0.48 -0.56,0.16 -0.94,0.27 -1.33,0.43 -0.56,0.11 -0.95,0.27 -1.32,0.32 -0.57,0.17 -0.94,0.22 -1.31,0.33 -0.57,0.11 -1.13,0.21 -1.5,0.27 -0.56,0.05 -0.94,0.1 -1.31,0.21 -0.56,0.06 -1.12,0.11 -1.48,0.11 -0.56,0.11 -1.11,0.11 -1.48,0.11 -0.55,0 -0.92,0 -1.28,0 -10.09,0 -20.17,0 -30.26,0 -0.55,0 -0.92,0 -1.28,0 -0.55,0 -0.92,0 -1.28,-0.11 -0.55,0 -0.9,-0.05 -1.26,-0.11 -0.37,0 -0.54,-0.05 -0.71,-0.16 -0.54,-0.05 -0.9,-0.11 -1.26,-0.21 -0.54,-0.06 -0.89,-0.11 -1.24,-0.27 -0.36,-0.06 -0.71,-0.17 -1.06,-0.27 -0.54,-0.06 -0.88,-0.22 -1.23,-0.38 -0.53,-0.11 -0.87,-0.27 -1.22,-0.43 -0.35,-0.11 -0.69,-0.27 -1.04,-0.38 -0.52,-0.16 -0.87,-0.32 -1.2,-0.54 -0.35,-0.1 -0.69,-0.27 -1.03,-0.48 -0.34,-0.11 -0.68,-0.32 -1.01,-0.54 -0.34,-0.22 -0.67,-0.43 -1,-0.65 -0.34,-0.21 -0.67,-0.43 -1.01,-0.64 -0.33,-0.22 -0.66,-0.43 -0.98,-0.7 -0.41,0.27 -0.81,0.48 -1.21,0.7 -0.4,0.21 -0.79,0.43 -1.19,0.64 -0.4,0.22 -0.8,0.43 -1.2,0.65 -0.4,0.22 -0.79,0.43 -1.18,0.54 -0.58,0.21 -0.97,0.38 -1.36,0.48 -0.4,0.22 -0.79,0.38 -1.17,0.54 -0.58,0.11 -0.96,0.27 -1.35,0.38 -0.39,0.16 -0.78,0.32 -1.17,0.43 -0.57,0.16 -0.96,0.32 -1.34,0.38 -0.39,0.1 -0.76,0.21 -1.14,0.27 -0.57,0.16 -0.95,0.21 -1.33,0.27 -0.56,0.1 -0.94,0.16 -1.32,0.21 -0.56,0.11 -0.94,0.16 -1.3,0.16 -0.56,0.06 -0.94,0.16 -1.49,0.16 -0.93,0.06 -1.3,0.06 -1.67,0.06 -0.54,0 -0.91,0 -1.28,0 -7.52,0 -14.85,0 -22.19,0 -0.55,0 -0.91,0 -1.28,0 -0.55,0 -0.92,0 -1.27,-0.06 -0.55,0 -0.91,-0.1 -1.26,-0.16 -0.55,0 -0.9,-0.05 -1.26,-0.16 -0.53,-0.05 -0.89,-0.11 -1.24,-0.21 -0.54,-0.06 -0.89,-0.11 -1.23,-0.27 -0.54,-0.06 -0.89,-0.11 -1.23,-0.27 -0.36,-0.06 -0.7,-0.22 -1.04,-0.38 -0.52,-0.11 -0.86,-0.27 -1.2,-0.43 -0.34,-0.11 -0.68,-0.27 -1.02,-0.38 -0.52,-0.16 -0.86,-0.32 -1.19,-0.54 -0.34,-0.1 -0.67,-0.27 -1,-0.48 -0.34,-0.11 -0.67,-0.32 -0.99,-0.54 -0.33,-0.22 -0.65,-0.43 -0.98,-0.65 -0.32,-0.21 -0.65,-0.43 -0.97,-0.64 -0.33,-0.22 -0.65,-0.43 -0.96,-0.7 -0.42,0.27 -0.83,0.48 -1.24,0.7 -0.4,0.21 -0.81,0.43 -1.22,0.64 -0.4,0.22 -0.81,0.43 -1.22,0.65 -0.59,0.22 -0.99,0.43 -1.39,0.54 -0.4,0.21 -0.8,0.38 -1.19,0.48 -0.41,0.22 -0.8,0.38 -1.2,0.54 -0.57,0.11 -0.97,0.27 -1.36,0.43 -0.4,0.11 -0.79,0.27 -1.18,0.38 -0.58,0.16 -0.98,0.32 -1.36,0.38 -0.58,0.16 -0.96,0.21 -1.34,0.27 -0.58,0.16 -0.96,0.21 -1.34,0.27 -0.38,0.1 -0.76,0.16 -1.14,0.21 -0.56,0.11 -0.94,0.16 -1.31,0.16 -0.57,0.06 -0.95,0.16 -1.31,0.16 -0.57,0.06 -0.93,0.06 -1.3,0.06 -0.55,0 -0.92,0 -1.28,0 -7.52,0 -14.86,0 -21.64,0 -0.92,0 -1.65,0 -2.37,-0.06 -0.72,-0.1 -1.44,-0.16 -2.15,-0.21 -0.9,-0.11 -1.61,-0.22 -2.31,-0.38 -0.7,-0.11 -1.39,-0.32 -1.9,-0.48 -0.72,-0.06 -1.41,-0.27 -2.09,-0.49 -0.68,-0.21 -1.35,-0.48 -2.02,-0.81 -0.67,-0.26 -1.34,-0.53 -1.8,-0.91 -0.65,-0.32 -1.3,-0.7 -1.77,-1.02 -0.65,-0.38 -1.1,-0.81 -1.55,-1.24 -0.63,-0.38 -1.08,-0.81 -1.53,-1.24 -0.63,-0.43 -1.07,-0.92 -1.5,-1.4 -0.61,-0.54 -1.04,-1.03 -1.45,-1.56 -0.43,-0.49 -0.85,-1.08 -1.26,-1.62 -0.41,-0.59 -0.82,-1.13 -1.05,-1.72 -0.41,-0.54 -0.8,-1.19 -1.2,-1.83 -0.41,-0.54 -0.81,-1.14 -1.03,-1.78 -0.44,0.38 -0.87,0.64 -1.3,0.91 -0.63,0.33 -1.07,0.7 -1.5,0.97 -0.45,0.33 -0.89,0.65 -1.33,0.97 -0.61,0.27 -1.04,0.54 -1.47,0.81 -0.64,0.38 -1.07,0.65 -1.5,0.97 -0.62,0.27 -1.05,0.54 -1.66,0.81 -0.8,0.27 -1.42,0.59 -1.85,0.86 -0.62,0.27 -1.05,0.54 -1.47,0.75 -0.61,0.33 -1.23,0.6 -1.65,0.81 -0.61,0.27 -1.05,0.54 -1.47,0.76 -0.61,0.26 -1.03,0.48 -1.45,0.7 -0.62,0.32 -1.22,0.53 -1.63,0.7 -0.61,0.21 -1.02,0.43 -1.44,0.64 -0.6,0.22 -1.21,0.43 -1.62,0.65 -0.61,0.21 -1.21,0.43 -1.61,0.59 -0.6,0.22 -1.2,0.38 -1.61,0.54 -0.6,0.21 -1.02,0.43 -1.42,0.59 -0.6,0.16 -1.19,0.32 -1.59,0.49 -0.6,0.21 -1.19,0.32 -1.59,0.48 -0.59,0.16 -1.17,0.27 -1.57,0.43 -0.59,0.11 -1.18,0.27 -1.58,0.43 -0.58,0.11 -1.17,0.27 -1.74,0.33 -0.59,0.16 -1.17,0.27 -1.56,0.37 -0.58,0.11 -1.15,0.22 -1.54,0.27 -0.58,0.16 -1.15,0.22 -1.54,0.27 -0.56,0.11 -1.13,0.16 -1.7,0.22 -0.57,0.05 -1.14,0.16 -1.52,0.21 -0.57,0.06 -1.14,0.16 -1.51,0.16 -0.57,0.06 -1.14,0.11 -1.69,0.11 -0.57,0.11 -1.12,0.11 -1.67,0.11 -0.57,0.05 -1.12,0.05 -1.48,0.05 -0.55,0 -1.1,0 -1.65,0 -2.57,0 -5.14,0 -7.71,0 -0.73,0 -1.46,0 -2.01,0 -0.74,0 -1.45,-0.05 -2.16,-0.16 -0.74,0 -1.45,-0.05 -1.98,-0.11 -0.53,-0.1 -0.88,-0.16 -1.41,-0.21 -0.71,-0.06 -1.43,-0.16 -1.94,-0.27 -0.71,-0.11 -1.4,-0.22 -1.91,-0.38 -0.7,-0.16 -1.39,-0.27 -1.9,-0.43 -0.69,-0.11 -1.38,-0.27 -1.89,-0.43 -0.7,-0.11 -1.37,-0.32 -1.86,-0.54 -0.69,-0.16 -1.18,-0.37 -1.66,-0.59 -0.67,-0.22 -1.35,-0.43 -1.83,-0.59 -0.67,-0.22 -1.16,-0.43 -1.63,-0.76 -0.67,-0.16 -1.15,-0.37 -1.62,-0.7 -0.65,-0.27 -1.3,-0.54 -1.76,-0.81 -0.65,-0.32 -1.11,-0.59 -1.58,-0.86 -0.46,-0.27 -0.93,-0.59 -1.37,-0.91 -0.65,-0.27 -1.11,-0.59 -1.55,-0.92 -0.63,-0.37 -1.07,-0.7 -1.51,-1.07 -0.44,-0.33 -0.88,-0.71 -1.32,-1.08 -0.62,-0.33 -1.06,-0.7 -1.48,-1.13 -0.44,-0.33 -0.88,-0.7 -1.3,-1.13 -0.44,-0.33 -0.85,-0.76 -1.27,-1.19 -0.42,-0.43 -0.84,-0.81 -1.26,-1.24 -0.42,-0.43 -0.84,-0.81 -1.24,-1.29 -0.41,-0.43 -0.83,-0.81 -1.05,-1.29 -0.41,-0.43 -0.83,-0.87 -1.23,-1.35 -0.39,-0.43 -0.79,-0.92 -1,-1.4 -0.4,-0.48 -0.79,-0.97 -1.01,-1.46 -1.39,-1.93 -2.77,-3.82 -3.97,-5.76 -0.49,0.43 -0.98,0.81 -1.47,1.24 -0.71,0.54 -1.25,1.08 -1.76,1.56 -0.71,0.54 -1.4,1.03 -1.92,1.51 -0.69,0.49 -1.38,0.97 -1.9,1.45 -0.69,0.49 -1.39,0.98 -1.9,1.46 -0.69,0.48 -1.39,0.97 -1.9,1.45 -0.7,0.43 -1.38,0.87 -2.05,1.3 -0.7,0.48 -1.37,0.86 -1.87,1.29 -0.7,0.48 -1.37,0.86 -2.05,1.29 -0.68,0.43 -1.35,0.81 -2.03,1.24 -0.69,0.43 -1.37,0.86 -2.03,1.24 -0.68,0.38 -1.34,0.75 -2,1.13 -0.68,0.38 -1.35,0.75 -2.01,1.08 -0.84,0.37 -1.5,0.75 -2.16,1.08 -0.67,0.37 -1.33,0.7 -1.99,1.07 -0.85,0.33 -1.49,0.65 -2.13,0.92 -0.84,0.32 -1.85,0.64 -2.67,0.91 -0.83,0.27 -1.47,0.54 -2.11,0.86 -0.82,0.27 -1.47,0.54 -2.11,0.81 -0.82,0.33 -1.44,0.54 -2.06,0.76 -0.83,0.27 -1.63,0.48 -2.25,0.7 -0.8,0.21 -1.42,0.43 -2.05,0.59 -0.8,0.22 -1.6,0.43 -2.2,0.59 -0.8,0.22 -1.42,0.43 -2.02,0.54 -0.78,0.16 -1.56,0.32 -2.16,0.43 -0.78,0.16 -1.56,0.32 -2.16,0.43 -0.78,0.16 -1.56,0.27 -2.14,0.38 -0.78,0.11 -1.54,0.21 -2.11,0.27 -0.76,0.05 -1.52,0.16 -2.09,0.21 -0.76,0.06 -1.52,0.17 -2.25,0.17 -0.76,0.05 -1.52,0.1 -2.07,0.1 -0.73,0 -1.47,0 -2.02,0 -2.75,0 -5.5,0 -8.07,0 -0.73,0 -1.46,0 -2.2,0 -0.73,0 -1.44,-0.05 -1.96,-0.1 -0.74,0 -1.45,-0.11 -1.97,-0.17 -0.71,-0.05 -1.42,-0.16 -1.94,-0.21 -0.71,-0.06 -1.42,-0.16 -1.91,-0.27 -0.71,-0.11 -1.39,-0.22 -1.89,-0.38 -0.68,-0.11 -1.37,-0.27 -1.86,-0.43 -0.68,-0.11 -1.36,-0.27 -1.86,-0.43 -0.68,-0.11 -1.34,-0.32 -1.81,-0.54 -0.68,-0.16 -1.15,-0.37 -1.62,-0.54 -0.66,-0.21 -1.31,-0.43 -1.78,-0.64 -0.65,-0.22 -1.12,-0.43 -1.57,-0.7 -0.65,-0.22 -1.09,-0.54 -1.54,-0.81 -0.65,-0.22 -1.09,-0.49 -1.53,-0.76 -0.63,-0.26 -1.07,-0.59 -1.51,-0.86 -0.65,-0.21 -1.15,-0.37 -1.56,-0.7 -0.63,-0.27 -1.04,-0.64 -1.45,-0.97 -0.63,-0.32 -1.04,-0.64 -1.45,-1.02 -0.41,-0.32 -0.83,-0.7 -1.24,-1.02 -0.41,-0.38 -0.82,-0.76 -1.21,-1.13 -0.59,-0.38 -0.98,-0.81 -1.36,-1.24 -0.41,-0.33 -0.79,-0.76 -1.18,-1.19 -0.38,-0.43 -0.76,-0.86 -0.97,-1.24 -3.44,-3.77 -6.85,-7.54 -9.98,-11.52 -0.47,0.27 -0.76,0.54 -1.02,0.75 -0.57,0.54 -1.13,1.02 -1.44,1.35 -0.52,0.43 -1.05,0.86 -1.54,1.18 -0.53,0.43 -1.03,0.76 -1.52,1.08 -0.53,0.43 -1.03,0.75 -1.52,1.13 -0.5,0.32 -1,0.65 -1.5,1.02 -0.52,0.38 -1.02,0.76 -1.52,1.08 -0.5,0.38 -1,0.7 -1.5,1.02 -0.68,0.38 -1.18,0.7 -1.65,0.97 -0.5,0.33 -1,0.71 -1.47,0.97 -0.69,0.33 -1.19,0.7 -1.66,0.97 -0.5,0.33 -0.97,0.6 -1.45,0.87 -0.69,0.37 -1.17,0.64 -1.64,0.91 -0.69,0.38 -1.17,0.65 -1.65,0.97 -0.66,0.27 -1.13,0.54 -1.61,0.81 -0.66,0.32 -1.14,0.59 -1.62,0.86 -0.66,0.27 -1.14,0.59 -1.62,0.86 -0.66,0.27 -1.14,0.54 -1.59,0.76 -0.66,0.27 -1.14,0.59 -1.6,0.8 -0.66,0.27 -1.11,0.49 -1.56,0.7 -0.66,0.27 -1.3,0.49 -1.75,0.7 -0.63,0.22 -1.09,0.43 -1.54,0.65 -0.63,0.22 -1.27,0.43 -1.72,0.59 -0.64,0.22 -1.27,0.43 -1.91,0.65 -0.82,0.21 -1.45,0.43 -1.88,0.59 -0.63,0.22 -1.09,0.43 -1.51,0.54 -0.64,0.22 -1.25,0.38 -1.67,0.48 -0.64,0.22 -1.25,0.38 -1.67,0.54 -0.64,0.22 -1.25,0.33 -1.67,0.49 -0.61,0.11 -1.22,0.27 -1.64,0.43 -0.61,0.11 -1.22,0.27 -1.62,0.32 -7.37,17.56 -14.89,35.44 -22.6,53.81 -0.38,0.91 -0.73,1.72 -1.08,2.58 -0.58,0.92 -0.84,1.51 -1.2,2.37 -0.54,0.86 -0.9,1.73 -1.26,2.53 -0.55,0.87 -1.09,1.73 -1.42,2.48 -0.54,0.86 -1.09,1.72 -1.61,2.48 -0.55,0.86 -1.06,1.62 -1.39,2.37 -0.74,0.86 -1.26,1.61 -1.77,2.42 -0.71,0.76 -1.23,1.51 -1.75,2.32 -0.71,0.75 -1.22,1.51 -1.71,2.21 -0.71,0.75 -1.39,1.45 -1.88,2.15 -0.71,0.76 -1.39,1.46 -1.88,2.16 -0.62,0.59 -1.28,1.23 -1.97,1.93 -0.69,0.7 -1.34,1.35 -2,2 -0.69,0.7 -1.35,1.34 -2.01,1.99 -0.85,0.59 -1.51,1.24 -2.17,1.89 -0.85,0.64 -1.51,1.29 -2.14,1.83 -0.85,0.64 -1.67,1.18 -2.3,1.72 -0.82,0.59 -1.64,1.13 -2.13,1.4 -0.82,0.54 -1.65,1.08 -2.24,1.56 -0.79,0.49 -1.58,0.97 -2.17,1.46 -0.79,0.48 -1.58,0.91 -2.34,1.34 -0.79,0.49 -1.55,0.86 -2.31,1.24 -0.95,0.43 -1.71,0.81 -2.47,1.19 -0.76,0.43 -1.48,0.75 -2.21,1.07 -0.91,0.33 -1.64,0.6 -2.37,0.92 -0.92,0.32 -1.61,0.59 -2.3,0.81 -0.89,0.27 -1.77,0.48 -2.46,0.7 -0.89,0.27 -1.55,0.43 -2.21,0.59 -0.85,0.16 -1.7,0.32 -2.36,0.48 -0.85,0.17 -1.67,0.22 -2.3,0.27 -0.78,0 -1.56,0 -2.15,0 -0.78,0 -1.57,0 -2.16,0 -8.03,0 -15.66,0 -23.11,0 -0.78,0 -1.56,0 -2.15,0 -0.78,0 -1.57,0 -2.15,0 -0.75,-0.05 -1.5,-0.1 -2.01,-0.27 -0.71,-0.16 -1.42,-0.32 -1.93,-0.48 -0.71,-0.16 -1.22,-0.32 -1.7,-0.59 -0.67,-0.22 -1.15,-0.43 -1.62,-0.7 -0.67,-0.22 -1.11,-0.54 -1.55,-0.86 -0.63,-0.33 -1.07,-0.65 -1.5,-0.97 -46.5,-32.53 -90.9,-63.88 -132.61,-94.69 0,0 0,0 0,0 -12.12,-8.62 -11.22,-29.08 2.64,-51.92 17.96,-29.57 35.06,-57.74 51.58,-84.94 15.9,-26.17 31.17,-51.33 45.95,-75.67 14.17,-23.32 27.92,-45.99 41.11,-67.7 12.83,-21.11 25.21,-41.52 37.17,-61.18 11.53,-19.02 36.63,-34.1 57.23,-34.1 15.77,0 31.11,0 46.88,0 14.66,0 26.55,4.04 34.14,11.1 10.35,-6.84 22.42,-11.1 33.42,-10.99 6.91,0 13.83,0 20.88,0 6.64,0 12.06,1.51 16.29,4.15 6.57,-2.64 13.45,-4.15 20.08,-4.15 6.5,0 13.83,0 20.89,0 11.61,0 20.14,4.79 24.23,12.28 14.89,-7.75 31.36,-12.28 47.27,-12.28 2.35,0 4.84,0 7.32,0 12.31,0.06 23.63,2.75 32.42,7.54 4.33,-14.16 8.62,-28.17 12.74,-41.63 5.17,-16.97 25.09,-30.54 44.26,-30.54 6.52,0 13.05,0 19.7,0 15.26,0 26.02,8.4 28.41,19.98 3.48,15.19 7.15,30.92 10.94,47.02 11.74,-33.55 48.36,-58.06 86.76,-58.06 1.85,0 3.82,0 5.79,0 10.92,0 22.25,2.21 31.67,6.79 10.22,-4.58 21.86,-6.79 33.17,-6.79 1.84,0 3.82,0 5.79,0z"/>
  <path class="fil1" d="M303.18 128.4c11.64,-23.49 0.9,-42.17 -24.05,-42.17 -16.06,0 -32.13,0 -47.77,0 -7.19,0 -16.12,5.6 -20.06,12.33 -11.55,19.72 -23.51,40.08 -35.92,61.24 -12.74,21.71 -26.08,44.48 -39.77,67.81 -14.31,24.39 -29.27,49.74 -44.79,75.78 -16.21,27.18 -32.62,55.38 -49.96,84.88 -6.08,10.35 -4.23,19.4 5.21,19.28 8.13,-0.1 17.63,0 26.63,0 10.43,0 22.7,-8.93 28.47,-19.49 16.7,-30.59 32.72,-60 48.15,-88.22 3.5,0 7.01,0 10.51,0 32.2,0 72.33,-27.74 88.3,-60 9.95,-20.09 19.3,-39.27 28.61,-58.06 9.06,-18.32 17.82,-35.99 26.44,-53.38zm-110.69 112.84c-3.67,0 -7.35,0 -11.18,0 10.74,-19.72 20.88,-38.57 30.95,-57.04 9.81,-18 19.46,-35.39 28.8,-52.46 3.51,0 6.88,0 10.11,0 -9.2,17.07 -18.56,34.46 -28.21,52.46 -9.91,18.47 -19.9,37.32 -30.47,57.04zm66.65 -1.4c-15.74,32.32 -2.76,59.73 29.1,59.73 2.84,0 6.01,0 9.01,0 32.53,0 69.69,-27.32 82.68,-59.73 10.32,-25.75 19.84,-50.58 29.31,-74.54 9.07,-22.95 17.97,-45.16 26.73,-66.52 2.77,-6.75 -0.89,-12.39 -8.64,-12.39 -7.19,0 -14.37,0 -21.42,0 -7.19,0 -15.84,5.54 -18.94,12.39 -9.67,21.37 -19.17,44.03 -29.32,67.11 -10.68,24.26 -21.58,49.06 -32.9,75.35 -3.67,0 -7.51,0 -11.18,0 11.54,-26.29 22.53,-51.15 33.38,-75.35 10.36,-23.08 20.55,-45.59 30.56,-67.33 3,-6.53 -0.77,-12.17 -8.24,-12.17 -7.19,0 -14.24,-0.05 -21.43,-0.05 -7.32,0 -16.12,5.53 -19.47,12.22 -10.82,21.59 -21.75,43.79 -32.92,66.74 -11.68,23.96 -23.78,48.8 -36.31,74.54zm159.98 -72.82c-9.15,23.64 3.44,43.09 28.08,43.09 6.55,0 13.1,0 19.96,0 -3.37,10.07 -6.9,20.52 -10.45,31.07 -3.69,0.06 -7.53,0.06 -11.2,0.06 0.5,-1.46 0.98,-2.86 1.48,-4.31 3.1,-8.99 -1.54,-15.57 -9.72,-15.57 -8.02,0 -15.89,0 -23.91,0 -8.19,0 -17.72,6.74 -21.14,15.57 -0.37,0.97 -0.72,1.88 -1.12,2.91 -12.47,32.26 3.24,59.72 35.79,59.67 2.33,0 5.84,0 8.51,0 32.69,0 67.47,-27.48 77.31,-59.73 3.93,-12.88 7.55,-25.64 11.22,-38.13 6.98,-23.75 -7.29,-42.37 -30.62,-42.49 -7.03,-0.04 -13.29,-0.17 -19.58,-0.17 3.17,-9.15 6.29,-18.2 9.34,-27.03 3.37,0 6.89,0 10.7,0 -0.51,1.45 -0.94,2.98 -1.51,4.47 -2.84,7.35 2.15,13.51 9.88,13.51 7.43,0 15.16,0 22.74,0 7.73,0 16.08,-6.14 18.25,-13.51 0.3,-1.03 0.64,-2.16 0.97,-3.29 7.73,-26.28 -8.43,-46.6 -36.15,-46.75 -2.52,-0.01 -5.07,0 -7.47,0 -27.48,0 -57.78,20.42 -68.25,46.7 -4.4,11.04 -8.63,22.35 -13.11,33.93zm245.61 -33.72c5.12,-26.33 -13.2,-46.75 -40.69,-46.75 -2.82,0 -5.64,0 -8.6,0 4.85,-19.23 9.83,-37.91 14.21,-55.96 1.55,-6.35 -3.16,-11.04 -10.07,-11.04 -6.77,0 -13.55,0 -20.19,0 -6.9,0 -13.57,4.72 -15.48,11.04 -5.2,17.22 -10.52,35.21 -15.72,53.65 -5.34,18.94 -10.94,38.78 -16.78,59.24 -6.08,21.28 -12.42,43.17 -18.98,65.82 -6.81,23.56 -14.18,47.93 -21.4,73.14 -2.69,9.37 2.43,17.07 11.11,17.07 8.34,0 16.83,0.05 25.19,0 8.52,-0.05 18.11,-7.86 20.38,-17.13 6.72,-27.46 13.19,-54.25 19.29,-79.49 5.91,-24.47 11.76,-48.1 17.35,-70.93 3.37,0 6.88,0 10.25,0 -5.39,22.83 -11.05,46.46 -16.74,70.93 -5.9,25.3 -12.13,52.03 -18.62,79.49 -2.19,9.27 3.32,16.97 12,16.97 8.34,0 16.84,0 25.35,0 8.01,0 16.86,-7.76 18.66,-16.97 5.32,-27.3 11.03,-53.76 15.82,-78.85 4.65,-24.3 9.28,-47.66 13.66,-70.23zm159.02 166c11.34,0 22.85,0 34.19,0 9.51,0 16.99,-7.76 17.15,-16.97 0.72,-39.26 1.39,-76.32 2.02,-111.43 0.59,-33.18 1.16,-64.69 1.68,-94.53 0.47,-26.66 -23.95,-47.66 -53.28,-47.66 -1.88,0 -3.89,0 -5.76,0 -9.78,0 -26.38,2.74 -34.66,14.22 -4.79,-10.99 -21.72,-14.22 -31.36,-14.22 -2.01,0 -3.89,0 -5.9,0 -29.73,0 -57.28,20.79 -62.23,47.45 -5.54,29.89 -11.35,61.52 -17.6,94.74 -6.6,35.13 -13.52,72.29 -21.22,111.48 -1.82,9.28 4.17,16.94 13.35,16.92 11.01,-0.03 23.02,0 34.69,0 8.68,0 17.08,-7.71 18.34,-16.92 5.41,-39.31 10.35,-76.37 15.17,-111.48 4.57,-33.23 8.91,-64.85 13.01,-94.74 4.19,0 8.38,0 12.57,0 -3.77,29.89 -7.77,61.51 -11.97,94.74 -4.44,35.11 -9.02,72.29 -14.12,111.48 -1.21,9.34 4.53,16.92 13.37,16.92 11.51,0 23.52,0 35.36,0 8.84,0 16.28,-7.71 17.01,-16.97 3.07,-39.26 5.81,-76.32 8.55,-111.43 2.6,-33.18 5.06,-64.69 7.39,-94.58 4.19,0 8.52,0 12.85,0 -1.99,29.89 -4.1,61.4 -6.33,94.58 -2.35,35.11 -4.68,72.17 -7.31,111.43 -0.62,9.26 5.86,16.97 15.04,16.97zm174.28 -165.78c-2.15,-26.34 -26.08,-46.54 -53.58,-46.54 -2.54,0 -5.08,0.02 -7.75,0 -26.51,-0.14 -48.41,20.2 -48.66,46.38 -0.15,16.53 -0.31,33.5 -0.48,50.95 -0.17,17.99 -0.34,36.35 -0.52,55.47 -0.31,32.1 25.1,59.3 56.62,59.3 4.83,0 9.67,0 14.67,0 29.35,0 51.35,-24.78 48.92,-54.56 -0.24,-2.96 -0.5,-6.09 -0.76,-9.21 -0.68,-8.4 -8.14,-15.02 -16.31,-15.02 -8.02,0 -15.88,0 -23.73,0 -8.49,0 -14.99,6.62 -14.66,15.02 0.08,1.94 0.16,3.83 0.23,5.66 -3.83,0 -7.5,0 -11.18,0 -0.33,-10.5 -0.65,-20.79 -0.96,-30.81 16.37,0 32.9,0 49.43,0 8.11,0 14.45,-6.41 13.81,-14.33 -1.75,-21.43 -3.45,-42.22 -5.09,-62.31zm-50.49 -1.19c0.46,11.58 0.93,23.54 1.41,35.55 -3.62,0 -7.09,0 -10.4,0 -0.38,-12.01 -0.76,-23.97 -1.12,-35.55 3.22,0 6.59,0 10.11,0zm63.79 34.9c2.14,23.65 23.99,42.89 48.63,42.93 6.56,0.01 13.26,0.05 19.81,0.05 1.57,10.02 3.01,20.26 4.49,30.81 -3.68,0 -7.35,0 -11.02,0 -0.19,-1.4 -0.37,-2.8 -0.56,-4.25 -1.17,-8.84 -9.12,-15.41 -17.3,-15.41 -8.02,0 -15.89,0 -23.75,0 -8.34,0 -14.67,6.57 -13.87,15.41 0.08,0.96 0.17,1.88 0.25,2.85 2.89,32.1 31.7,59.46 64.22,59.46 3,0 5.84,0 8.67,0 32.52,0 53.87,-27.41 48.04,-59.46 -2.35,-12.92 -4.74,-25.46 -7.05,-37.86 -4.4,-23.57 -27.05,-42.39 -50.72,-42.39 -6.44,0 -12.73,0 -18.87,0 -1.2,-9.1 -2.4,-18.2 -3.57,-27.04 3.37,0 6.74,0 10.11,0 0.21,1.51 0.43,3.02 0.63,4.47 1.04,7.38 8.44,13.58 16.17,13.58 7.59,0 15.02,0 22.6,0 7.59,0 12.71,-6.2 11.38,-13.52 -0.19,-1.08 -0.4,-2.21 -0.6,-3.29 -4.76,-26.17 -30.47,-46.59 -57.82,-46.59 -2.4,0 -4.79,0 -7.76,0 -27.63,0 -47.51,20.2 -45.14,46.54 0.99,11.09 2.01,22.35 3.03,33.71zm124.37 0c4.5,23.65 28.29,42.98 53.09,42.98 6.86,0 13.41,0 20.12,0 2.57,10.02 5.04,20.26 7.58,30.81 -3.67,0 -7.35,0 -11.18,0 -0.34,-1.45 -0.66,-2.85 -1,-4.31 -2.03,-8.72 -10.49,-15.35 -18.67,-15.35 -8.02,0 -15.89,0 -23.91,0 -8.18,0 -13.85,6.57 -12.17,15.41 0.19,0.96 0.36,1.88 0.55,2.85 6.1,32.05 37.68,59.46 70.2,59.46 2.83,0 6.01,0.01 8.67,0 32.65,-0.15 51.76,-27.41 42.68,-59.51 -3.65,-12.87 -7.67,-25.43 -11.15,-37.7 -6.7,-23.7 -31.65,-42.5 -55.31,-42.5 -6.89,0 -13.18,0 -19.47,0 -2.12,-9.1 -4.22,-18.15 -6.23,-26.82 3.51,0 6.88,0 10.25,0 0.36,1.51 0.72,2.96 1.08,4.47 1.72,7.16 9.9,13.36 17.93,13.36 7.58,0 15.02,0 22.6,0 8.03,0 12.87,-6.04 10.8,-13.36 -0.3,-1.08 -0.63,-2.21 -0.93,-3.29 -7.45,-26.33 -36.18,-46.58 -63.68,-46.58 -2.39,0 -4.93,0 -7.33,0 -27.5,-0.05 -46.16,20.27 -41.08,46.42 2.14,11.01 4.39,22.3 6.56,33.66zm213.02 73.79c-3.67,0 -7.34,0 -11.18,0 -3.51,-10.55 -6.92,-20.79 -10.26,-30.81 3.74,0 7.33,0 10.76,0 3.58,10.02 7.08,20.26 10.68,30.81zm-61.74 -153.87c-26.93,0 -43.12,20.41 -35.49,46.58 0.38,1.3 0.77,2.64 1.15,3.94 2.14,7.32 10.46,13.46 18.65,13.46 6.99,0 14.43,0 22.02,0 7.73,0 12.09,-6.14 9.66,-13.46 -0.58,-1.73 -1.15,-3.45 -1.71,-5.12 3.52,0 6.89,0 10.26,0 3.01,8.83 6.1,17.88 9.21,26.98 -3.14,0 -6.44,0.01 -9.44,0 -28.8,-0.09 -45.18,22.84 -36.64,52.08 4.38,14.98 8.91,30.49 13.55,46.38 6.49,22.24 29.94,40.93 51.78,40.93 2,0 4.02,0.01 5.84,0 10.67,-0.05 16.81,-7 16.88,-16.97 0.33,0.97 0.68,2 1.04,3.02 2.64,7.7 10.74,13.84 17.9,13.84 10.17,0 20.51,0 30.68,0 7.34,0 10.81,-6.14 7.86,-13.84 -10.61,-27.68 -20.94,-54.48 -30.82,-80.03 -9.48,-24.54 -18.7,-48.18 -27.72,-71.21 -10.21,-26.09 -39.77,-46.38 -67.31,-46.53 -2.41,-0.01 -4.81,-0.05 -7.35,-0.05zm179.08 12.54c-3.31,-6.7 -12.04,-12.37 -19.51,-12.38 -15.94,-0.04 -32.02,0 -48.1,0 -24.54,0 -37.44,18.58 -28.29,41.95 6.72,17.18 14.06,34.86 21.11,52.84 7.31,18.64 14.93,37.65 22.68,57.47 12.48,31.88 49.22,59.24 81.74,59.24 3.33,0 6.83,0 10.33,0 5.71,12.93 11.61,26.34 17.59,39.86 -4.11,0 -8.06,0 -12.18,0 -2.12,-4.9 -4.24,-9.8 -6.36,-14.71 -4.18,-9.64 -14.54,-16.91 -23.43,-16.91 -8.39,0 -16.77,0 -25.33,0 -8.89,0 -12.86,7.69 -9.14,16.91 8.25,20.45 16.71,41.31 25.16,62.86 4.17,10.6 15.08,19.66 24.6,19.66 18.16,0 37.64,0.02 55.92,-0.06 34.49,-0.14 47.07,-31.79 28.61,-69.48 -22.37,-45.68 -43.14,-89.1 -62.72,-129.42 -18.38,-37.83 -35.87,-73.76 -52.68,-107.83zm3.08 141.33c-8.44,-19.44 -16.81,-38.26 -24.8,-56.5 -7.72,-17.63 -15.6,-35.01 -22.92,-51.97 3.51,0 6.9,0.05 10.44,0.11 7.43,16.85 15.53,34.2 23.34,51.86 8.12,18.37 16.67,37.06 25.28,56.5 -3.83,0 -7.51,0 -11.34,0zm136.08 -107.07c-15.42,-26.12 -50.12,-46.43 -77.77,-46.43 -2.54,0 -5.24,-0.04 -7.78,-0.05 -27.14,-0.1 -38.94,20.3 -26.1,46.43 8.09,16.47 16.42,33.39 24.9,50.62 8.83,17.94 17.92,36.08 27.25,55.05 15.68,31.88 55.22,59.03 87.56,59.03 4.83,0 9.67,0 14.67,0 29.34,0 39.63,-24.56 22.38,-54.08 -1.79,-3.06 -3.62,-6.18 -5.4,-9.21 -4.93,-8.39 -16.31,-14.97 -24.49,-14.97 -8.01,0 -16.03,0 -23.89,0 -8.33,0 -11.53,6.58 -6.95,14.97 1,1.84 2.04,3.72 3.08,5.66 -3.83,0 -7.66,0 -11.49,0 -5.6,-10.45 -11.1,-20.74 -16.58,-30.76 16.82,-0.05 33.35,0 50.04,0 8.1,0 11.95,-6.25 7.23,-14.32 -12.42,-21.22 -24.92,-42.07 -36.66,-61.94zm-52 -1.24c6.31,11.69 12.66,23.43 19.17,35.39 -3.62,0 -7.09,0 -10.71,0 -6.4,-11.96 -12.65,-23.7 -18.87,-35.39 3.52,0 6.89,0 10.41,0z"/>
 </g>
</svg>
